# xmcd
#
# Track frame offsets:
#	150
#	13131
#	32356
#	49654
#	64189
#	82858
#	98639
#	114545
#	128998
#	144434
#	164082
#	180376
#
# Disc length: 2573 seconds
#
# Revision: 1
# Processed by: cddbd v1.5.2PL0 Copyright (c) Steve Scherf et al.
# Submitted via: audiograbber 1.83.01
#
DISCID=960a0b0c
DTITLE=Soha - Díci et dúilleurs
DYEAR=2007
DGENRE=World
TTITLE0=Tourbillon
TTITLE1=Cést bien mieux comme ca
TTITLE2=Ma Melancolie
TTITLE3=On ne saura jamais
TTITLE4=Mil Pasos
TTITLE5=Dream Club
TTITLE6=Vu de la-bas
TTITLE7=Le Cafe bleu
TTITLE8=Mon reve a moi
TTITLE9=Drole dídee
TTITLE10=Rue de la Croix Nivert
TTITLE11=Heureuse
EXTD=
EXTT0=
EXTT1=
EXTT2=
EXTT3=
EXTT4=
EXTT5=
EXTT6=
EXTT7=
EXTT8=
EXTT9=
EXTT10=
EXTT11=
PLAYORDER=
